<?xml version="1.0" encoding="UTF-8"?>
<svg width="512" height="512" viewBox="0 0 512 512"
    xmlns="http://www.w3.org/2000/svg">
    <defs>
        <!-- 渐变定义 -->
        <linearGradient id="primaryGradient" x1="0%" y1="0%" x2="100%" y2="100%">
            <stop offset="0%" style="stop-color:#2196F3;stop-opacity:1" />
            <stop offset="100%" style="stop-color:#21CBF3;stop-opacity:1" />
        </linearGradient>

        <linearGradient id="shadowGradient" x1="0%" y1="0%" x2="100%" y2="100%">
            <stop offset="0%" style="stop-color:#1976D2;stop-opacity:0.8" />
            <stop offset="100%" style="stop-color:#0288D1;stop-opacity:0.8" />
        </linearGradient>

        <!-- 滤镜效果 -->
        <filter id="dropShadow" x="-20%" y="-20%" width="140%" height="140%">
            <feDropShadow dx="8" dy="12" stdDeviation="16" flood-opacity="0.3" flood-color="#1976D2"/>
        </filter>
    </defs>

    <!-- 背景圆形 -->
    <circle cx="256" cy="256" r="240" fill="url(#primaryGradient)" filter="url(#dropShadow)"/>

    <!-- 内层圆环 -->
    <circle cx="256" cy="256" r="200" fill="none" stroke="rgba(255,255,255,0.2)" stroke-width="4"/>

    <!-- 主锁体 -->
    <rect x="180" y="240" width="152" height="120" rx="20" ry="20" fill="white" opacity="0.95"/>

    <!-- 锁孔 -->
    <circle cx="256" cy="290" r="18" fill="url(#primaryGradient)"/>
    <rect x="248" y="290" width="16" height="32" fill="url(#primaryGradient)"/>

    <!-- 锁扣 -->
    <path d="M 200 240 Q 200 180 256 180 Q 312 180 312 240" fill="none" stroke="white" stroke-width="16" stroke-linecap="round"/>

    <!-- 锁扣内环 -->
    <path d="M 220 240 Q 220 200 256 200 Q 292 200 292 240" fill="none" stroke="rgba(255,255,255,0.6)" stroke-width="8" stroke-linecap="round"/>

    <!-- 装饰性密钥图案 -->
    <g transform="translate(340, 180) rotate(45)">
        <rect x="0" y="0" width="40" height="8" rx="4" fill="rgba(255,255,255,0.8)"/>
        <rect x="32" y="-8" width="12" height="8" rx="2" fill="rgba(255,255,255,0.8)"/>
        <rect x="32" y="8" width="8" height="8" rx="2" fill="rgba(255,255,255,0.8)"/>
        <circle cx="0" cy="4" r="8" fill="rgba(255,255,255,0.8)"/>
        <circle cx="0" cy="4" r="4" fill="url(#primaryGradient)"/>
    </g>

    <!-- 光效 -->
    <ellipse cx="200" cy="200" rx="60" ry="30" fill="rgba(255,255,255,0.3)" transform="rotate(-45 200 200)"/>
</svg>