<?xml version="1.0" encoding="UTF-8"?>
<svg width="256" height="256" viewBox="0 0 256 256"
    xmlns="http://www.w3.org/2000/svg">
    <defs>
        <linearGradient id="lockGradient" x1="0%" y1="0%" x2="100%" y2="100%">
            <stop offset="0%" style="stop-color:#2196F3;stop-opacity:1" />
            <stop offset="100%" style="stop-color:#1976D2;stop-opacity:1" />
        </linearGradient>

        <linearGradient id="shimmer" x1="0%" y1="0%" x2="100%" y2="0%">
            <stop offset="0%" style="stop-color:rgba(255,255,255,0);stop-opacity:0" />
            <stop offset="50%" style="stop-color:rgba(255,255,255,0.8);stop-opacity:1" />
            <stop offset="100%" style="stop-color:rgba(255,255,255,0);stop-opacity:0" />
        </linearGradient>

        <filter id="softShadow" x="-50%" y="-50%" width="200%" height="200%">
            <feDropShadow dx="0" dy="8" stdDeviation="16" flood-opacity="0.2" flood-color="#1976D2"/>
        </filter>
    </defs>

    <!-- 背景光环 -->
    <circle cx="128" cy="128" r="120" fill="rgba(33, 150, 243, 0.05)"/>
    <circle cx="128" cy="128" r="100" fill="rgba(33, 150, 243, 0.08)"/>
    <circle cx="128" cy="128" r="80" fill="rgba(33, 150, 243, 0.12)"/>

    <!-- 主锁体 -->
    <rect x="80" y="140" width="96" height="80" rx="16" ry="16" fill="url(#lockGradient)" filter="url(#softShadow)"/>

    <!-- 锁体高光 -->
    <rect x="80" y="140" width="96" height="20" rx="16" ry="16" fill="rgba(255,255,255,0.2)"/>

    <!-- 锁孔 -->
    <circle cx="128" cy="170" r="12" fill="rgba(255,255,255,0.9)"/>
    <rect x="122" y="170" width="12" height="24" rx="6" fill="rgba(255,255,255,0.9)"/>

    <!-- 锁扣 -->
    <path d="M 100 140 Q 100 100 128 100 Q 156 100 156 140" fill="none" stroke="url(#lockGradient)" stroke-width="12" stroke-linecap="round"/>

    <!-- 锁扣内侧 -->
    <path d="M 110 140 Q 110 115 128 115 Q 146 115 146 140" fill="none" stroke="rgba(255,255,255,0.6)" stroke-width="6" stroke-linecap="round"/>

    <!-- 装饰性光效 -->
    <ellipse cx="110" cy="160" rx="20" ry="10" fill="rgba(255,255,255,0.3)" transform="rotate(-30 110 160)"/>

    <!-- 动态光效 -->
    <rect x="80" y="140" width="96" height="80" rx="16" ry="16" fill="url(#shimmer)" opacity="0.5">
        <animateTransform attributeName="transform" attributeType="XML" type="translate" values="-100,0;200,0;-100,0" dur="3s" repeatCount="indefinite"/>
    </rect>
</svg>